<mxfile host="Electron" modified="2024-06-05T13:56:52.537Z" agent="Mozilla/5.0 (X11; Linux x86_64) AppleWebKit/537.36 (KHTML, like Gecko) draw.io/24.4.13 Chrome/124.0.6367.207 Electron/30.0.6 Safari/537.36" etag="cx-mC0kHiUgrapDeCLdQ" version="24.4.13" type="device">
  <diagram name="Pagina-1" id="9F2Tau9k70slqT6EMDcw">
    <mxGraphModel dx="786" dy="1367" grid="1" gridSize="10" guides="1" tooltips="1" connect="1" arrows="1" fold="1" page="1" pageScale="1" pageWidth="827" pageHeight="1169" math="0" shadow="0">
      <root>
        <mxCell id="0" />
        <mxCell id="1" parent="0" />
        <mxCell id="WSBdfRriSi0Cj2RA5Psl-1" value="" style="whiteSpace=wrap;html=1;aspect=fixed;fillColor=#d5e8d4;strokeColor=#82b366;gradientColor=#97d077;" parent="1" vertex="1">
          <mxGeometry x="250" y="895" width="40" height="40" as="geometry" />
        </mxCell>
        <mxCell id="WSBdfRriSi0Cj2RA5Psl-2" value="" style="whiteSpace=wrap;html=1;aspect=fixed;fillColor=#d5e8d4;strokeColor=#82b366;gradientColor=#97d077;" parent="1" vertex="1">
          <mxGeometry x="290" y="895" width="40" height="40" as="geometry" />
        </mxCell>
        <mxCell id="WSBdfRriSi0Cj2RA5Psl-3" value="" style="whiteSpace=wrap;html=1;aspect=fixed;fillColor=#d5e8d4;strokeColor=#82b366;gradientColor=#97d077;" parent="1" vertex="1">
          <mxGeometry x="330" y="895" width="40" height="40" as="geometry" />
        </mxCell>
        <mxCell id="WSBdfRriSi0Cj2RA5Psl-4" value="" style="whiteSpace=wrap;html=1;aspect=fixed;fillColor=#d5e8d4;strokeColor=#82b366;gradientColor=#97d077;" parent="1" vertex="1">
          <mxGeometry x="370" y="895" width="40" height="40" as="geometry" />
        </mxCell>
        <mxCell id="WSBdfRriSi0Cj2RA5Psl-5" value="" style="whiteSpace=wrap;html=1;aspect=fixed;fillColor=#d5e8d4;strokeColor=#82b366;gradientColor=#97d077;" parent="1" vertex="1">
          <mxGeometry x="410" y="895" width="40" height="40" as="geometry" />
        </mxCell>
        <mxCell id="WSBdfRriSi0Cj2RA5Psl-6" value="" style="whiteSpace=wrap;html=1;aspect=fixed;fillColor=#d5e8d4;strokeColor=#82b366;gradientColor=#97d077;" parent="1" vertex="1">
          <mxGeometry x="290" y="855" width="40" height="40" as="geometry" />
        </mxCell>
        <mxCell id="WSBdfRriSi0Cj2RA5Psl-7" value="1" style="whiteSpace=wrap;html=1;aspect=fixed;fillColor=#d5e8d4;strokeColor=#82b366;gradientColor=#97d077;" parent="1" vertex="1">
          <mxGeometry x="330" y="855" width="40" height="40" as="geometry" />
        </mxCell>
        <mxCell id="WSBdfRriSi0Cj2RA5Psl-8" value="" style="whiteSpace=wrap;html=1;aspect=fixed;fillColor=#d5e8d4;strokeColor=#82b366;gradientColor=#97d077;" parent="1" vertex="1">
          <mxGeometry x="370" y="855" width="40" height="40" as="geometry" />
        </mxCell>
        <mxCell id="WSBdfRriSi0Cj2RA5Psl-9" value="3" style="whiteSpace=wrap;html=1;aspect=fixed;fillColor=#60a917;fontColor=#ffffff;strokeColor=#2D7600;" parent="1" vertex="1">
          <mxGeometry x="410" y="855" width="40" height="40" as="geometry" />
        </mxCell>
        <mxCell id="WSBdfRriSi0Cj2RA5Psl-10" value="2" style="whiteSpace=wrap;html=1;aspect=fixed;fillColor=#60a917;fontColor=#ffffff;strokeColor=#2D7600;" parent="1" vertex="1">
          <mxGeometry x="450" y="895" width="40" height="40" as="geometry" />
        </mxCell>
        <mxCell id="WSBdfRriSi0Cj2RA5Psl-11" value="" style="whiteSpace=wrap;html=1;aspect=fixed;fillColor=#d5e8d4;strokeColor=#82b366;gradientColor=#97d077;" parent="1" vertex="1">
          <mxGeometry x="250" y="855" width="40" height="40" as="geometry" />
        </mxCell>
        <mxCell id="WSBdfRriSi0Cj2RA5Psl-12" value="" style="whiteSpace=wrap;html=1;aspect=fixed;fillColor=#d5e8d4;strokeColor=#82b366;gradientColor=#97d077;" parent="1" vertex="1">
          <mxGeometry x="210" y="855" width="40" height="40" as="geometry" />
        </mxCell>
        <mxCell id="WSBdfRriSi0Cj2RA5Psl-13" value="A" style="shape=umlActor;verticalLabelPosition=bottom;verticalAlign=top;html=1;outlineConnect=0;" parent="1" vertex="1">
          <mxGeometry x="260" y="860" width="20" height="30" as="geometry" />
        </mxCell>
        <mxCell id="WSBdfRriSi0Cj2RA5Psl-14" value="B" style="shape=umlActor;verticalLabelPosition=bottom;verticalAlign=top;html=1;outlineConnect=0;" parent="1" vertex="1">
          <mxGeometry x="340" y="860" width="20" height="30" as="geometry" />
        </mxCell>
        <mxCell id="WSBdfRriSi0Cj2RA5Psl-16" value="" style="whiteSpace=wrap;html=1;aspect=fixed;fillColor=#d5e8d4;strokeColor=#82b366;gradientColor=#97d077;" parent="1" vertex="1">
          <mxGeometry x="290" y="815" width="40" height="40" as="geometry" />
        </mxCell>
        <mxCell id="WSBdfRriSi0Cj2RA5Psl-17" value="" style="whiteSpace=wrap;html=1;aspect=fixed;fillColor=#d5e8d4;strokeColor=#82b366;gradientColor=#97d077;" parent="1" vertex="1">
          <mxGeometry x="290" y="775" width="40" height="40" as="geometry" />
        </mxCell>
        <mxCell id="WSBdfRriSi0Cj2RA5Psl-18" value="2" style="whiteSpace=wrap;html=1;aspect=fixed;fillColor=#60a917;fontColor=#ffffff;strokeColor=#2D7600;" parent="1" vertex="1">
          <mxGeometry x="290" y="740" width="40" height="40" as="geometry" />
        </mxCell>
        <mxCell id="WSBdfRriSi0Cj2RA5Psl-19" value="" style="whiteSpace=wrap;html=1;aspect=fixed;fillColor=#1ba1e2;fontColor=#ffffff;strokeColor=#006EAF;" parent="1" vertex="1">
          <mxGeometry x="300" y="750" width="20" height="20" as="geometry" />
        </mxCell>
        <mxCell id="WSBdfRriSi0Cj2RA5Psl-22" value="" style="edgeStyle=orthogonalEdgeStyle;rounded=0;orthogonalLoop=1;jettySize=auto;html=1;" parent="1" source="WSBdfRriSi0Cj2RA5Psl-20" target="WSBdfRriSi0Cj2RA5Psl-21" edge="1">
          <mxGeometry relative="1" as="geometry" />
        </mxCell>
        <mxCell id="WSBdfRriSi0Cj2RA5Psl-20" value="ricevo opzione" style="rhombus;whiteSpace=wrap;html=1;" parent="1" vertex="1">
          <mxGeometry x="230" y="160" width="140" height="80" as="geometry" />
        </mxCell>
        <mxCell id="WSBdfRriSi0Cj2RA5Psl-24" value="" style="edgeStyle=orthogonalEdgeStyle;rounded=0;orthogonalLoop=1;jettySize=auto;html=1;" parent="1" source="WSBdfRriSi0Cj2RA5Psl-21" target="WSBdfRriSi0Cj2RA5Psl-23" edge="1">
          <mxGeometry relative="1" as="geometry" />
        </mxCell>
        <mxCell id="WSBdfRriSi0Cj2RA5Psl-25" value="no" style="edgeLabel;html=1;align=center;verticalAlign=middle;resizable=0;points=[];" parent="WSBdfRriSi0Cj2RA5Psl-24" vertex="1" connectable="0">
          <mxGeometry x="-0.2622" y="-1" relative="1" as="geometry">
            <mxPoint as="offset" />
          </mxGeometry>
        </mxCell>
        <mxCell id="WSBdfRriSi0Cj2RA5Psl-27" value="" style="edgeStyle=orthogonalEdgeStyle;rounded=0;orthogonalLoop=1;jettySize=auto;html=1;" parent="1" source="WSBdfRriSi0Cj2RA5Psl-21" target="WSBdfRriSi0Cj2RA5Psl-26" edge="1">
          <mxGeometry relative="1" as="geometry" />
        </mxCell>
        <mxCell id="WSBdfRriSi0Cj2RA5Psl-28" value="si" style="edgeLabel;html=1;align=center;verticalAlign=middle;resizable=0;points=[];" parent="WSBdfRriSi0Cj2RA5Psl-27" vertex="1" connectable="0">
          <mxGeometry x="0.04" relative="1" as="geometry">
            <mxPoint as="offset" />
          </mxGeometry>
        </mxCell>
        <mxCell id="WSBdfRriSi0Cj2RA5Psl-21" value="opzione go_to or&lt;div&gt;go_pick_up&lt;/div&gt;" style="rhombus;whiteSpace=wrap;html=1;" parent="1" vertex="1">
          <mxGeometry x="230" y="270" width="140" height="80" as="geometry" />
        </mxCell>
        <mxCell id="WSBdfRriSi0Cj2RA5Psl-23" value="Go_ahead per&amp;nbsp;&lt;div&gt;entrambi&lt;/div&gt;" style="rhombus;whiteSpace=wrap;html=1;" parent="1" vertex="1">
          <mxGeometry x="460" y="270" width="140" height="80" as="geometry" />
        </mxCell>
        <mxCell id="WSBdfRriSi0Cj2RA5Psl-31" value="" style="edgeStyle=orthogonalEdgeStyle;rounded=0;orthogonalLoop=1;jettySize=auto;html=1;" parent="1" source="WSBdfRriSi0Cj2RA5Psl-26" edge="1">
          <mxGeometry relative="1" as="geometry">
            <mxPoint x="450" y="430" as="targetPoint" />
          </mxGeometry>
        </mxCell>
        <mxCell id="WSBdfRriSi0Cj2RA5Psl-32" value="no" style="edgeLabel;html=1;align=center;verticalAlign=middle;resizable=0;points=[];" parent="WSBdfRriSi0Cj2RA5Psl-31" vertex="1" connectable="0">
          <mxGeometry x="0.03" y="-1" relative="1" as="geometry">
            <mxPoint as="offset" />
          </mxGeometry>
        </mxCell>
        <mxCell id="WSBdfRriSi0Cj2RA5Psl-34" value="" style="edgeStyle=orthogonalEdgeStyle;rounded=0;orthogonalLoop=1;jettySize=auto;html=1;" parent="1" source="WSBdfRriSi0Cj2RA5Psl-26" target="WSBdfRriSi0Cj2RA5Psl-33" edge="1">
          <mxGeometry relative="1" as="geometry" />
        </mxCell>
        <mxCell id="WSBdfRriSi0Cj2RA5Psl-36" value="si" style="edgeLabel;html=1;align=center;verticalAlign=middle;resizable=0;points=[];" parent="WSBdfRriSi0Cj2RA5Psl-34" vertex="1" connectable="0">
          <mxGeometry x="0.0267" relative="1" as="geometry">
            <mxPoint as="offset" />
          </mxGeometry>
        </mxCell>
        <mxCell id="WSBdfRriSi0Cj2RA5Psl-26" value="è go_to e&lt;div&gt;posizione è&amp;nbsp;&lt;/div&gt;&lt;div&gt;la stessa&lt;/div&gt;" style="rhombus;whiteSpace=wrap;html=1;" parent="1" vertex="1">
          <mxGeometry x="230" y="390" width="140" height="80" as="geometry" />
        </mxCell>
        <mxCell id="WSBdfRriSi0Cj2RA5Psl-33" value="dimentica parcel id" style="rhombus;whiteSpace=wrap;html=1;" parent="1" vertex="1">
          <mxGeometry x="230" y="530" width="140" height="80" as="geometry" />
        </mxCell>
        <mxCell id="WSBdfRriSi0Cj2RA5Psl-38" value="" style="edgeStyle=orthogonalEdgeStyle;rounded=0;orthogonalLoop=1;jettySize=auto;html=1;" parent="1" source="WSBdfRriSi0Cj2RA5Psl-37" target="WSBdfRriSi0Cj2RA5Psl-23" edge="1">
          <mxGeometry relative="1" as="geometry" />
        </mxCell>
        <mxCell id="WSBdfRriSi0Cj2RA5Psl-40" value="" style="edgeStyle=orthogonalEdgeStyle;rounded=0;orthogonalLoop=1;jettySize=auto;html=1;" parent="1" source="WSBdfRriSi0Cj2RA5Psl-37" target="WSBdfRriSi0Cj2RA5Psl-39" edge="1">
          <mxGeometry relative="1" as="geometry" />
        </mxCell>
        <mxCell id="WSBdfRriSi0Cj2RA5Psl-41" value="si" style="edgeLabel;html=1;align=center;verticalAlign=middle;resizable=0;points=[];" parent="WSBdfRriSi0Cj2RA5Psl-40" vertex="1" connectable="0">
          <mxGeometry x="-0.12" y="1" relative="1" as="geometry">
            <mxPoint as="offset" />
          </mxGeometry>
        </mxCell>
        <mxCell id="WSBdfRriSi0Cj2RA5Psl-37" value="è go_pick_up&lt;div&gt;e posizione è&lt;/div&gt;&lt;div&gt;la stessa&lt;/div&gt;" style="rhombus;whiteSpace=wrap;html=1;" parent="1" vertex="1">
          <mxGeometry x="450" y="390" width="140" height="80" as="geometry" />
        </mxCell>
        <mxCell id="WSBdfRriSi0Cj2RA5Psl-43" value="" style="edgeStyle=orthogonalEdgeStyle;rounded=0;orthogonalLoop=1;jettySize=auto;html=1;" parent="1" source="WSBdfRriSi0Cj2RA5Psl-39" target="WSBdfRriSi0Cj2RA5Psl-42" edge="1">
          <mxGeometry relative="1" as="geometry" />
        </mxCell>
        <mxCell id="WSBdfRriSi0Cj2RA5Psl-44" value="no" style="edgeLabel;html=1;align=center;verticalAlign=middle;resizable=0;points=[];" parent="WSBdfRriSi0Cj2RA5Psl-43" vertex="1" connectable="0">
          <mxGeometry x="-0.184" relative="1" as="geometry">
            <mxPoint as="offset" />
          </mxGeometry>
        </mxCell>
        <mxCell id="WSBdfRriSi0Cj2RA5Psl-46" value="" style="edgeStyle=orthogonalEdgeStyle;rounded=0;orthogonalLoop=1;jettySize=auto;html=1;" parent="1" source="WSBdfRriSi0Cj2RA5Psl-39" target="WSBdfRriSi0Cj2RA5Psl-45" edge="1">
          <mxGeometry relative="1" as="geometry" />
        </mxCell>
        <mxCell id="WSBdfRriSi0Cj2RA5Psl-39" value="reward&amp;nbsp; per me&lt;div&gt;maggiore?&lt;/div&gt;" style="rhombus;whiteSpace=wrap;html=1;" parent="1" vertex="1">
          <mxGeometry x="450" y="520" width="140" height="80" as="geometry" />
        </mxCell>
        <mxCell id="WSBdfRriSi0Cj2RA5Psl-42" value="go ahead compagno&lt;div&gt;io rigenero&lt;/div&gt;" style="rounded=0;whiteSpace=wrap;html=1;" parent="1" vertex="1">
          <mxGeometry x="640" y="530" width="120" height="60" as="geometry" />
        </mxCell>
        <mxCell id="WSBdfRriSi0Cj2RA5Psl-45" value="go ahead io&lt;div&gt;compagno rigenera&lt;/div&gt;" style="rounded=0;whiteSpace=wrap;html=1;" parent="1" vertex="1">
          <mxGeometry x="460" y="650" width="120" height="60" as="geometry" />
        </mxCell>
      </root>
    </mxGraphModel>
  </diagram>
</mxfile>
